<?xml version="1.0" encoding="iso-8859-1"?>
<!-- Generator: Adobe Illustrator 19.0.0, SVG Export Plug-In . SVG Version: 6.00 Build 0)  -->
<svg version="1.1" id="Capa_1" xmlns="http://www.w3.org/2000/svg" xmlns:xlink="http://www.w3.org/1999/xlink" x="0px" y="0px"
	 viewBox="0 0 58 58" style="enable-background:new 0 0 58 58;" xml:space="preserve">
<g>
	<path fill="#ffffff" d="M57.496,18.632l-28-16c-0.308-0.176-0.685-0.176-0.992,0l-28,16c-0.394,0.225-0.587,0.687-0.47,1.125
		C0.15,20.195,0.546,20.5,1,20.5h4v33H1v2h5h3h40h3h5v-2h-4v-33h4c0.454,0,0.85-0.305,0.966-0.743
		C58.083,19.318,57.89,18.856,57.496,18.632z M8,25.5v6v6v6v6v4H7v-33h1V25.5z M48,53.5H10v-3h38V53.5z M48,48.5H10v-4h38V48.5z
		 M48,42.5H10v-4h38V42.5z M48,36.5H10v-4h38V36.5z M48,30.5H10v-4h38V30.5z M48,24.5H10v-4h38V24.5z M51,53.5h-1v-4v-6v-6v-6v-6v-5
		h1V53.5z M4.766,18.5L29,4.651L53.234,18.5H4.766z"/>
</g>
</svg>
