<?xml version="1.0" encoding="iso-8859-1"?>
<!-- Generator: Adobe Illustrator 19.0.0, SVG Export Plug-In . SVG Version: 6.00 Build 0)  -->
<svg version="1.1" id="Capa_1" xmlns="http://www.w3.org/2000/svg" xmlns:xlink="http://www.w3.org/1999/xlink" x="0px" y="0px"
	 viewBox="0 0 58 58" style="enable-background:new 0 0 58 58;" xml:space="preserve">
<g>
	<g>
		<path fill="#ffffff" d="M57.496,19.132l-28-16c-0.308-0.176-0.685-0.176-0.992,0l-28,16c-0.394,0.225-0.587,0.687-0.47,1.125
			C0.15,20.695,0.546,21,1,21h3v32H1v2h4h5h10h5h9h5h9h5h4v-2h-3V21h3c0.454,0,0.85-0.305,0.966-0.743
			C58.083,19.818,57.89,19.356,57.496,19.132z M29,5.151L53.234,19H53h-5H10H5H4.766L29,5.151z M33,51v2h-7v-2H33z M25,49h-5h-3.009
			c-0.219,0-0.391-0.065-0.484-0.185c-0.097-0.122-0.121-0.313-0.067-0.536l1.219-5.094C17.81,42.554,18.508,42,19.153,42h19.693
			c0.645,0,1.343,0.554,1.494,1.186l1.219,5.094c0.053,0.219,0.027,0.408-0.071,0.533C41.394,48.934,41.223,49,41.009,49H39h-5H25z
			 M20.181,40l0.667-4h16.306l0.667,4H20.181z M41.009,51c0.827,0,1.575-0.346,2.05-0.949c0.479-0.606,0.641-1.422,0.446-2.236
			l-1.219-5.094c-0.219-0.913-0.852-1.702-1.657-2.193L41.6,39.8c0.442-0.331,0.531-0.958,0.2-1.399c-0.33-0.442-0.957-0.53-1.4-0.2
			l-0.758,0.569l-0.655-3.933C38.906,34.354,38.489,34,38,34H20c-0.489,0-0.906,0.354-0.986,0.836l-0.656,3.933L17.6,38.2
			c-0.443-0.33-1.069-0.242-1.4,0.2c-0.332,0.441-0.242,1.068,0.2,1.399l0.971,0.728c-0.805,0.491-1.439,1.279-1.657,2.193
			l-1.219,5.094c-0.196,0.819-0.035,1.636,0.442,2.24C15.411,50.655,16.159,51,16.991,51H19v2h-8V33h36v20h-7v-2H41.009z M47,31H11
			v-4h36V31z M47,25H11v-4h36V25z M6,53V21h3v5v6v21H6z M21,53v-2h3v2H21z M35,53v-2h3v2H35z M52,53h-3V32v-6v-5h3V53z"/>
	</g>
</g>
</svg>
